<svg xmlns="http://www.w3.org/2000/svg" width="167" height="146" viewBox="0 0 167 146"><defs><style>.cls-1{fill:#001419;}.cls-2{fill:#fff;}.cls-3,.cls-4{fill:#22c8f6;}.cls-3{fill-rule:evenodd;}</style></defs><title>logo</title><g id="Ebene_1" data-name="Ebene 1"><rect class="cls-1" y="8.86" width="167" height="137.53"/><path class="cls-2" d="M14.29,22.07a4,4,0,0,1,1.44,2.77,2.2,2.2,0,0,1-2.15,2.22c-.65,0-1.47-.36-1.47-1.15l0-.57,0-.61a1.57,1.57,0,0,0-1.65-1.58,1.54,1.54,0,0,0-1.58,1.69c0,2.48,2.84,3.45,4.85,3.45,2.77,0,5.93-1.83,5.93-4.92,0-2.12-1.19-3.56-2.59-5-.83-.83-1.94-1.8-1.94-3.13,0-1.11.79-1.69,1.94-1.69,1,0,1.22.4,1.26,1.26s.47,1.87,1.54,1.87a1.48,1.48,0,0,0,1.51-1.51c0-2.22-2.55-2.84-4.31-2.84-2.77,0-5.75,1.51-5.75,4.63,0,2,1.69,3.67,2.91,5.1"/><path class="cls-2" d="M52.48,21.17C51.9,23,51,25.59,48.74,25.59c-1.51,0-2.19-1.44-2.19-2.73,0-3.45,3.74-8.77,3.74-9.77a.69.69,0,0,0-.72-.75c-1.44,0-.58,2.08-2.08,2.08-1.29,0-1.51-1.65-3.45-1.65-1.58,0-2.37,1.37-2.37,2.8,0,.36.07,1.58.58,1.58S42.56,16,43.57,16c.65,0,1.33.32,2.08.32a9.33,9.33,0,0,0,1.8-.21l.07.07c-2,1.94-5.1,5.39-5.1,8.37a3.59,3.59,0,0,0,3.84,3.74,6.84,6.84,0,0,0,6.11-3.88h.07c.07,2.34,1.11,3.88,3.63,3.88,5.39,0,9.12-8.73,9.12-13.11,0-1.08-.32-2.84-1.76-2.84s-1.87,1-1.87,2.23c0,.61.36,3.81.4,4,0,2.26-1.29,7.33-4.24,7.33-1.18,0-1.72-1.08-1.72-2.12a21.23,21.23,0,0,1,.86-4.46l1.47-5.57h-4l-1.87,7.4"/><path class="cls-1" d="M94.09,5.6a2.3,2.3,0,1,0-2.34-2.3,2.31,2.31,0,0,0,2.34,2.3"/><path class="cls-2" d="M94.79,22.68c-.61.9-1.69,3.23-2.95,3.23A.9.9,0,0,1,91,25a8.2,8.2,0,0,1,.54-2L93,18.62a14.3,14.3,0,0,0,.9-3.81,2.41,2.41,0,0,0-2.62-2.48c-2.77,0-4.67,2.77-5.93,4.92l.68.4c.5-.86,1.91-3.16,2.95-3.16a.81.81,0,0,1,.79.9,19.5,19.5,0,0,1-1.12,3.77l-.79,2.34a13.39,13.39,0,0,0-1,4.06,2.49,2.49,0,0,0,2.59,2.73c2.8,0,4.88-3,6-5.28l-.68-.32"/><path class="cls-2" d="M121,22.07a4,4,0,0,1,1.44,2.77,2.2,2.2,0,0,1-2.16,2.22c-.64,0-1.47-.36-1.47-1.15l0-.57,0-.61a1.57,1.57,0,0,0-1.65-1.58,1.54,1.54,0,0,0-1.58,1.69c0,2.48,2.84,3.45,4.85,3.45,2.77,0,5.93-1.83,5.93-4.92,0-2.12-1.18-3.56-2.58-5-.83-.83-1.94-1.8-1.94-3.13,0-1.11.79-1.69,1.94-1.69,1,0,1.22.4,1.26,1.26s.47,1.87,1.54,1.87a1.47,1.47,0,0,0,1.51-1.51c0-2.22-2.55-2.84-4.31-2.84-2.77,0-5.75,1.51-5.75,4.63,0,2,1.69,3.67,2.91,5.1"/><path class="cls-2" d="M152.95,22.07a4,4,0,0,1,1.44,2.77,2.2,2.2,0,0,1-2.16,2.22c-.64,0-1.47-.36-1.47-1.15l0-.57,0-.61a1.57,1.57,0,0,0-1.65-1.58,1.54,1.54,0,0,0-1.58,1.69c0,2.48,2.84,3.45,4.85,3.45,2.77,0,5.93-1.83,5.93-4.92,0-2.12-1.18-3.56-2.58-5-.83-.83-1.94-1.8-1.94-3.13,0-1.11.79-1.69,1.94-1.69,1,0,1.22.4,1.26,1.26s.47,1.87,1.54,1.87a1.47,1.47,0,0,0,1.51-1.51c0-2.22-2.55-2.84-4.31-2.84C153,12.34,150,13.85,150,17c0,2,1.69,3.67,2.91,5.1"/><path class="cls-3" d="M20.36,89.43H22c11.61,0,17.45,5.91,17.45,17.31,0,10.36-4.87,17.32-17.45,17.32H20.36V89.43M10.13,133H24.66c15,0,25.38-11.4,25.38-26.15,0-15-10.15-26.28-25.31-26.28H10.13Z"/><path class="cls-3" d="M75.42,88.88h1.39c5.43,0,9.53,1.25,9.53,7.72s-4,8.07-9.6,8.07H75.42V88.88m10.43,22c7-1.18,10.71-7.86,10.71-14.53,0-11.19-7.16-15.79-17.52-15.79H65.2V133H75.42V111.82h.14L88.29,133h12.38Z"/><path class="cls-4" d="M136.3,105.08v8.34h11.12c-.21,6.33-5.56,11.89-12,11.89-9.87,0-14.81-9.67-14.81-18.36s4.87-18.78,14.74-18.78c5.42,0,9.87,3.61,12,8.34l9-4.87a22.62,22.62,0,0,0-20.72-12.52C120,79.14,110.09,92,110.09,107c0,14.46,9.67,27.4,25,27.4,16.27,0,23.85-13.14,23.85-28v-1.32H136.3"/></g></svg>